<?xml version="1.0" standalone="no"?>
<!DOCTYPE svg PUBLIC "-//W3C//DTD SVG 20010904//EN"
 "http://www.w3.org/TR/2001/REC-SVG-20010904/DTD/svg10.dtd">
<svg version="1.0" xmlns="http://www.w3.org/2000/svg"
 width="512.000000pt" height="512.000000pt" viewBox="0 0 512.000000 512.000000"
 preserveAspectRatio="xMidYMid meet">
<metadata>
Created by potrace 1.14, written by Peter Selinger 2001-2017
</metadata>
<g transform="translate(0.000000,512.000000) scale(0.100000,-0.100000)"
fill="#000000" stroke="none">
<path d="M0 2560 l0 -2560 2560 0 2560 0 0 2560 0 2560 -2560 0 -2560 0 0
-2560z m1550 1508 c5 -13 57 -147 115 -298 58 -151 139 -360 180 -465 73 -189
185 -477 350 -905 48 -124 129 -333 180 -465 51 -132 132 -341 180 -465 48
-124 104 -270 126 -326 21 -55 39 -103 39 -107 0 -4 -82 -6 -182 -5 l-182 3
-17 45 c-10 25 -66 169 -125 320 -58 151 -133 345 -166 430 -33 85 -65 158
-72 162 -6 4 -279 8 -607 8 -466 0 -599 -3 -606 -12 -10 -14 -21 -40 -168
-423 -53 -137 -121 -314 -151 -392 l-56 -143 -175 0 -175 0 7 28 c3 15 78 212
167 437 292 748 365 937 518 1330 188 482 386 991 447 1148 l46 117 159 0
c155 0 159 -1 168 -22z m2567 1 c308 -25 485 -78 650 -196 162 -115 259 -287
298 -526 19 -117 19 -181 -1 -313 -52 -352 -246 -590 -580 -712 -182 -67 -300
-83 -669 -91 l-310 -6 -3 -597 -2 -598 -175 0 -175 0 0 1518 c0 835 3 1522 7
1525 11 11 821 8 960 -4z"/>
<path d="M1360 3664 c-6 -14 -10 -31 -10 -37 0 -50 -264 -792 -431 -1215 -16
-40 -29 -79 -29 -87 0 -13 65 -15 490 -15 270 0 490 4 490 8 0 5 -34 101 -76
213 -41 112 -86 233 -99 269 -13 36 -64 175 -113 310 -49 135 -114 320 -143
413 -29 92 -57 167 -61 167 -5 0 -13 -12 -18 -26z"/>
<path d="M3505 3769 c-3 -8 -4 -288 -3 -624 l3 -610 150 -3 c174 -4 451 13
547 33 273 58 425 185 485 407 27 96 24 300 -4 396 -40 134 -114 229 -228 291
-164 90 -278 110 -657 118 -242 5 -288 4 -293 -8z"/>
</g>
</svg>
